<svg width="72" height="18" viewBox="0 0 72 18" fill="none" xmlns="http://www.w3.org/2000/svg">
<rect width="33" height="18" rx="9" transform="matrix(1 0 0 -1 19 18)" fill="#23F5B8"/>
<rect x="0.5" y="-0.5" width="32" height="17" rx="8.5" transform="matrix(1 0 0 -1 19 17)" stroke="#111D5B" stroke-opacity="0.4"/>
<path d="M28.3311 13H26.8662V5.89062H28.3311V13ZM32.3574 5.89062L34.1836 11.0469L36 5.89062H37.9238V13H36.4541V11.0566L36.6006 7.70215L34.6816 13H33.6758L31.7617 7.70703L31.9082 11.0566V13H30.4434V5.89062H32.3574ZM45.5342 10.6318C45.4788 11.3968 45.1956 11.999 44.6846 12.4385C44.1768 12.8779 43.5062 13.0977 42.6729 13.0977C41.7614 13.0977 41.0436 12.7917 40.5195 12.1797C39.9987 11.5645 39.7383 10.7214 39.7383 9.65039V9.21582C39.7383 8.53223 39.8587 7.93001 40.0996 7.40918C40.3405 6.88835 40.6839 6.48958 41.1299 6.21289C41.5791 5.93294 42.0999 5.79297 42.6924 5.79297C43.5127 5.79297 44.1735 6.0127 44.6748 6.45215C45.1761 6.8916 45.4658 7.50846 45.5439 8.30273H44.0791C44.0433 7.84375 43.9147 7.51172 43.6934 7.30664C43.4753 7.09831 43.1416 6.99414 42.6924 6.99414C42.2041 6.99414 41.8379 7.16992 41.5938 7.52148C41.3529 7.86979 41.2292 8.41178 41.2227 9.14746V9.68457C41.2227 10.4528 41.3382 11.0143 41.5693 11.3691C41.8037 11.724 42.1715 11.9014 42.6729 11.9014C43.1253 11.9014 43.4622 11.7988 43.6836 11.5938C43.9082 11.3854 44.0368 11.0648 44.0693 10.6318H45.5342Z" fill="#233A96"/>
</svg>
